<svg id="Layer_1_1_" enable-background="new 0 0 64 64" height="512" viewBox="0 0 64 64" width="512" xmlns="http://www.w3.org/2000/svg"><g fill="#e58842"><path d="m31 47h2v11h-2z"/><path d="m41 58h-2v-1.586l-3-3v-7.414h2v6.586l3 3z"/><path d="m48 58h-2v-1.586l-5-5v-8.414h2v7.586l5 5z"/><path d="m25 58h-2v-2.414l3-3v-6.586h2v7.414l-3 3z"/><path d="m18 58h-2v-2.414l5-5v-7.586h2v8.414l-5 5z"/><path d="m46 60h2v2h-2z"/><path d="m39 60h2v2h-2z"/><path d="m16 60h2v2h-2z"/><path d="m23 60h2v2h-2z"/><path d="m31 60h2v2h-2z"/></g><circle cx="32" cy="32" fill="#732de2" r="16"/><path d="m34.121 13.707c-1.17-1.17-3.072-1.17-4.242 0l-1.414-1.414c1.949-1.949 5.121-1.949 7.07 0z" fill="#f4b34a"/><path d="m37.267 10.707c-2.904-2.904-7.629-2.904-10.533 0l-1.414-1.414c3.684-3.684 9.678-3.684 13.361 0z" fill="#f4b34a"/><path d="m40.293 7.707c-4.572-4.572-12.014-4.572-16.586 0l-1.414-1.414c5.352-5.354 14.062-5.354 19.414 0z" fill="#f4b34a"/><path d="m12.293 35.535c-1.949-1.949-1.949-5.121 0-7.07l1.414 1.414c-1.17 1.17-1.17 3.072 0 4.242z" fill="#f4b34a"/><path d="m9.293 38.681c-3.684-3.684-3.684-9.678 0-13.361l1.414 1.414c-2.904 2.904-2.904 7.629 0 10.533z" fill="#f4b34a"/><path d="m6.293 41.707c-5.353-5.353-5.353-14.062 0-19.414l1.414 1.414c-4.572 4.573-4.572 12.013 0 16.586z" fill="#f4b34a"/><path d="m51.707 35.535-1.414-1.414c1.17-1.17 1.17-3.072 0-4.242l1.414-1.414c1.949 1.949 1.949 5.121 0 7.07z" fill="#f4b34a"/><path d="m54.707 38.681-1.414-1.414c2.904-2.904 2.904-7.629 0-10.533l1.414-1.414c3.684 3.683 3.684 9.677 0 13.361z" fill="#f4b34a"/><path d="m57.707 41.707-1.414-1.414c4.572-4.573 4.572-12.013 0-16.586l1.414-1.414c5.353 5.353 5.353 14.061 0 19.414z" fill="#f4b34a"/><path d="m38.701 25.03c2.098-.545 4.139-1.348 6.064-2.415l.123-.068c-.405-.551-.84-1.076-1.31-1.57-1.793.969-3.688 1.7-5.637 2.184-1.522-3.349-3.498-5.884-4.532-7.09-.466-.041-.934-.071-1.409-.071s-.943.03-1.408.071c-1.034 1.206-3.01 3.741-4.532 7.09-1.949-.484-3.844-1.215-5.637-2.184-.47.494-.906 1.019-1.31 1.57l.123.068c1.925 1.067 3.966 1.869 6.064 2.415-.663 1.83-1.135 3.84-1.253 5.97h-7.997c-.02.332-.05.662-.05 1s.03.668.05 1h7.996c.118 2.13.59 4.14 1.253 5.97-2.098.545-4.139 1.347-6.064 2.414l-.123.068c.405.551.84 1.076 1.31 1.57 1.793-.969 3.688-1.7 5.637-2.184 1.522 3.349 3.498 5.884 4.532 7.09.466.042.934.072 1.409.072s.943-.03 1.408-.071c1.034-1.206 3.01-3.741 4.532-7.09 1.949.484 3.844 1.215 5.637 2.184.47-.494.906-1.019 1.31-1.57l-.123-.068c-1.925-1.067-3.966-1.869-6.064-2.414.663-1.83 1.135-3.841 1.253-5.97h7.996c.021-.333.051-.663.051-1.001s-.03-.668-.05-1h-7.996c-.118-2.13-.59-4.14-1.253-5.97zm-6.701-7.522c.925 1.103 2.571 3.27 3.907 6.06-2.587.415-5.228.415-7.815 0 1.337-2.79 2.983-4.957 3.908-6.06zm0 28.984c-.925-1.103-2.571-3.27-3.907-6.06 2.587-.415 5.228-.415 7.815 0-1.337 2.79-2.983 4.957-3.908 6.06zm4.718-7.954c-3.117-.559-6.319-.559-9.436 0-.645-1.704-1.119-3.573-1.243-5.538h11.922c-.124 1.965-.598 3.834-1.243 5.538zm-10.679-7.538c.124-1.965.598-3.833 1.243-5.537 1.558.28 3.138.426 4.718.426s3.16-.146 4.718-.426c.645 1.704 1.119 3.572 1.243 5.537z" fill="#4c1ea5"/><path d="m48 32c0-8.837-7.163-16-16-16v32c8.837 0 16-7.163 16-16z" fill="#4c1ea5"/><path d="m37.941 40.839c1.949.484 3.844 1.215 5.637 2.184 0 0 0 0 .001-.001.47-.494.905-1.019 1.31-1.569l-.123-.068c-1.925-1.067-3.966-1.869-6.064-2.414.663-1.83 1.135-3.841 1.253-5.97h7.996c.019-.333.049-.663.049-1.001s-.03-.668-.05-1h-7.996c-.118-2.13-.59-4.14-1.253-5.97 2.098-.545 4.139-1.348 6.064-2.415l.123-.068c-.405-.551-.84-1.076-1.31-1.569 0 0 0 0-.001-.001-1.793.969-3.688 1.7-5.637 2.184-1.522-3.349-3.498-5.884-4.532-7.09-.465-.041-.933-.071-1.408-.071v1.508c.925 1.103 2.571 3.27 3.907 6.06-1.293.207-2.6.311-3.907.311v2.01c1.58 0 3.16-.146 4.718-.426.645 1.704 1.119 3.572 1.243 5.537h-5.961v2h5.961c-.124 1.965-.598 3.834-1.243 5.538-1.558-.28-3.138-.419-4.718-.419v2.003c1.307 0 2.614.104 3.907.311-1.336 2.789-2.983 4.956-3.907 6.06v1.507c.475 0 .943-.03 1.408-.071 1.035-1.206 3.011-3.741 4.533-7.09z" fill="#3c1991"/></svg>